<?xml version="1.0" encoding="utf-8"?>
<!-- Generator: Adobe Illustrator 21.0.0, SVG Export Plug-In . SVG Version: 6.00 Build 0)  -->
<svg version="1.1" id="a281da36-03ff-4df9-8bcc-0ac71230b2d7"
	 xmlns="http://www.w3.org/2000/svg" xmlns:xlink="http://www.w3.org/1999/xlink" x="0px" y="0px" viewBox="0 0 835.2 546.2"
	 style="enable-background:new 0 0 835.2 546.2;" xml:space="preserve">
<style type="text/css">
	.st0{fill:#F7CAC9;}
	.st1{fill:#33323D;}
	.st2{fill:#FFFFFF;}
	.st3{fill:#504F60;}
	.st4{opacity:0.1;fill:#33323D;enable-background:new    ;}
	.st5{opacity:0.8;fill:#8CCF4D;enable-background:new    ;}
	.st6{opacity:0.8;fill:#FA5959;enable-background:new    ;}
	.st7{fill:#E0E0E0;}
</style>
<title>printing invoices</title>
<path class="st0" d="M836.3,490.7c0,20-20.7,38.7-56.9,54.8H96.3c-31.6,0-61.2-11.4-86.6-31.4C3.4,506.6,0,498.8,0,490.7
	c0-21.3,23.4-41.1,63.9-57.9l0,0l1.1-0.5c11.4-4.7,24.2-9.1,38.2-13.3c0.4-0.1,0.7-0.2,1.1-0.3l0,0c11.1-3.3,22.9-6.3,35.4-9.3
	c0.4-0.1,0.8-0.2,1.2-0.3c4.8-1.1,9.7-2.2,14.8-3.3l0,0l1.9-0.4c36.5-7.6,78.1-13.6,123.1-17.7h0.1c6.3-0.6,12.7-1.1,19.1-1.6
	c7.2-0.6,14.4-1.1,21.8-1.5c5.6-0.4,11.3-0.7,17-0.9c0,0,0.1,0,0.1,0c25.7-1.3,52.2-2,79.3-2c67.1,0,130.5,4.1,186.7,11.4
	c0.1,0,0.1,0,0.2,0c8.6,1.1,17.1,2.3,25.4,3.6c2.4,0.4,4.7,0.7,7,1.1c9.3,1.5,18.4,3.1,27.3,4.8l0,0
	C768.7,422.6,836.3,454.6,836.3,490.7z"/>
<rect x="223.9" y="46.7" class="st1" width="384.2" height="193.9"/>
<rect x="104.2" y="299.5" class="st1" width="624.8" height="127.7"/>
<polygon class="st2" points="266.3,331.4 560.4,331.4 619,528.6 204.4,528.6 "/>
<polygon class="st3" points="86.4,223.4 86.4,289.7 86.4,303.6 86.4,427.2 206.1,427.2 206.1,309.3 627.1,309.3 627.1,427.2 
	746.8,427.2 746.8,303.6 746.8,289.7 746.8,223.4 "/>
<rect x="86.4" y="223.4" class="st4" width="660.4" height="66.3"/>
<circle class="st5" cx="711.2" cy="256.6" r="9.8"/>
<circle class="st6" cx="667" cy="256.6" r="9.8"/>
<rect x="238" class="st7" width="356" height="211.1"/>
</svg>
