<?xml version="1.0" encoding="utf-8"?>
<!-- Generator: Adobe Illustrator 21.0.0, SVG Export Plug-In . SVG Version: 6.00 Build 0)  -->
<svg version="1.1" id="_x35_9904e4f-d552-4f96-882a-6a294bb87dd0"
	 xmlns="http://www.w3.org/2000/svg" xmlns:xlink="http://www.w3.org/1999/xlink" x="0px" y="0px" viewBox="0 0 808.5 790.5"
	 style="enable-background:new 0 0 808.5 790.5;" xml:space="preserve">
<style type="text/css">
	.st0{fill:#F7CAC9;}
	.st1{fill:#444053;}
	.st2{opacity:0.7;}
	.st3{opacity:0.1;enable-background:new    ;}
	.st4{fill:#FFFFFF;}
	.st5{opacity:0.3;fill:#F7CAC9;enable-background:new    ;}
	.st6{opacity:0.3;enable-background:new    ;}
	.st7{fill:none;}
	.st8{fill:#3ACC6C;}
</style>
<title>to do list</title>
<path class="st0" d="M163.6,441.8c0,0,10.4-7.4,21.1-2.8c0,0-3,6.4-16.4,6.3L163.6,441.8z"/>
<path class="st0" d="M162.3,442.2c0,0-2.8,12.5,5.7,20.5c0,0,4.7-5.3-0.6-17.5L162.3,442.2z"/>
<path class="st0" d="M148.6,430.9c0,0,0.4-10.5,24.2-7.9c0,0,0.4,6.8-7.8,10.3C156.8,436.8,152.9,434.2,148.6,430.9z"/>
<path class="st0" d="M147.2,430.9c0,0-9.9,3.6-0.1,25.5c0,0,6.5-1.7,7.4-10.6C155.3,436.9,151.6,433.9,147.2,430.9z"/>
<path class="st0" d="M133.2,416.5c0,0-2-17.2,22.2-16.4c0,0,2.3,15.5-17.8,20.3L133.2,416.5z"/>
<path class="st0" d="M116.5,397.7c0,0,2.6-19.7,27-14.8c0,0,0.7,16.9-22.8,19.3L116.5,397.7z"/>
<path class="st0" d="M104,378c0,0,4.8-19.3,29-14.5c0,0-5,17.3-27.3,17.9L104,378z"/>
<path class="st0" d="M92.2,358.8c0,0,4.7-20,28-14.9c0,0-7,19.1-26.4,18.2L92.2,358.8z"/>
<path class="st0" d="M84.3,340.3c0,0,3.3-24.3,25-19.8c0,0-5.4,22.2-23.3,23.3L84.3,340.3z"/>
<path class="st0" d="M76.7,318c0,0,4.1-24.5,26.1-18.3c0,0-7.7,23.4-24.5,21.6L76.7,318z"/>
<path class="st0" d="M71.8,297.2c0,0,7-24.7,23.9-24.6c0,0-7.1,26-22.3,29.5L71.8,297.2z"/>
<path class="st0" d="M68.4,276.8c0,0,7.5-29.7,21.4-27.9c0,0-5.1,22.6-20.7,32.5L68.4,276.8z"/>
<path class="st0" d="M65.9,252.4c0,0,7.2-24.7,20.7-26.2c0,0-4.6,24.3-20.1,32.6L65.9,252.4z"/>
<path class="st0" d="M63.4,229.7c0,0,9.2-24.9,18.1-25.8c0,0-3.5,24.3-17.1,29.7L63.4,229.7z"/>
<path class="st0" d="M61.5,208.5c0,0,5.2-26.8,14.1-29.4c0,0-0.4,21.8-13.1,31.3L61.5,208.5z"/>
<path class="st0" d="M57,180.8c0,0,5.7-21.4,12.9-24.9c0,0-0.5,25-11,30L57,180.8z"/>
<path class="st0" d="M53.5,162.7l-2.8-37.3c0,0,14.6,27.7,4,43.8L53.5,162.7z"/>
<path class="st0" d="M41.6,126c0,0-10.8-26.9-13.2-28.3c0,0,19.8,17,18.8,39.8L41.6,126z"/>
<path class="st0" d="M132.5,416.4c0,0-17.3-1.6-15.8,22.6c0,0,15.6,1.9,19.9-18.3L132.5,416.4z"/>
<path class="st0" d="M115.6,397c0,0-19.8,0.7-17.3,25.4c0,0,16.8,2.3,21.4-20.9L115.6,397z"/>
<path class="st0" d="M103.9,379.6c0,0-18.3-7.8-29,14.5c0,0,16.9,6.4,30.7-11L103.9,379.6z"/>
<path class="st0" d="M91.8,359c0,0-18.8-8.3-28.8,13.4c0,0,19.4,5.9,30.4-10.1L91.8,359z"/>
<path class="st0" d="M84.6,340.9c0,0-18.4-16.3-31.9,1.4c0,0,18.6,13.2,32.8,2.3L84.6,340.9z"/>
<path class="st0" d="M77.7,317.4c0,0-18.5-16.6-31.9,2c0,0,20.6,13.5,32.6,1.6L77.7,317.4z"/>
<path class="st0" d="M73.6,296.4c0,0-14.6-21.1-30.6-15.7c0,0,15.1,22.4,30.6,20.8L73.6,296.4z"/>
<path class="st0" d="M68.8,276.7c0,0-14.9-26.7-27.8-21.5c0,0,10.8,20.6,28.3,26L68.8,276.7z"/>
<path class="st0" d="M66.8,251c0,0-15.1-20.9-28.3-17.8c0,0,12.5,21.3,29.9,23.9L66.8,251z"/>
<path class="st0" d="M64.9,229.1c0,0-11.9-23.6-20.9-23.5c0,0,6.2,23.7,20.3,27.6L64.9,229.1z"/>
<path class="st0" d="M61.9,207.9c0,0-13.2-23.9-22.4-23.6c0,0,7.1,20.6,22.1,25.8L61.9,207.9z"/>
<path class="st0" d="M59.1,182.2c0,0-9.9-19.8-17.6-21.8c0,0,5.5,24.4,16.8,27.2L59.1,182.2z"/>
<path class="st0" d="M52.4,162.1l-21.7-30.4c0,0,6.4,30.6,24.9,36.3L52.4,162.1z"/>
<path class="st0" d="M37.1,128.7c0,0-24.4-15.5-25.4-18.2c0,0,13,22.6,35.7,25.8L37.1,128.7z"/>
<path class="st0" d="M35.3,121.4c0,0-28.4-25.3-35.3-24.9c0,0,22.6,0.2,36,23.5L35.3,121.4z"/>
<path class="st1" d="M58.9,186.2l-1,0.2c-6.7-40.1-15.1-63.5-23.7-66.2l0.3-1C43.6,122,52.1,145.1,58.9,186.2z"/>
<path class="st1" d="M70.2,282.1l-1.5,0.2c-0.5-3.7-0.9-7.6-1.2-11.4c-2.7-33.3-6.1-63.8-9.9-86.6l0.8-1.1
	c3.8,22.9,7.9,54.3,10.6,87.6C69.3,274.6,69.7,278.4,70.2,282.1z"/>
<path class="st1" d="M192.5,459.9c-0.3-0.1-27.2-10.9-55.8-38.1c-16.7-15.9-30.9-34.4-41.8-54.7c-13.7-25.4-22.7-57-26.5-87.8
	l1.6,0.7c8.5,69.2,41.9,115.4,68,140.3c28.3,26.9,55,37.7,55.2,37.8L192.5,459.9z"/>
<g class="st2">
	<path class="st0" d="M205.5,378.4c0,0,12.1-4,21,3.6c0,0-4.8,5.2-17.5,1.1L205.5,378.4z"/>
	<path class="st0" d="M204.1,378.5c0,0-6.3,11.1-0.7,21.3c0,0,6-3.6,4.6-16.9L204.1,378.5z"/>
	<path class="st0" d="M194.4,363.6c0,0,3.5-9.9,25.5-0.4c0,0-1.6,6.6-10.5,7.5S197.5,368,194.4,363.6z"/>
	<path class="st0" d="M193,363.1c0,0-10.5,0.5-7.7,24.3c0,0,6.8,0.3,10.2-7.9S196.4,367.4,193,363.1z"/>
	<path class="st0" d="M183.9,345.2c0,0,3.2-17,26.1-9c0,0-2.4,15.5-23,14.1L183.9,345.2z"/>
	<path class="st0" d="M173.6,322.2c0,0,8.3-18,30.1-6.1c0,0-4.3,16.3-27.5,11.6L173.6,322.2z"/>
	<path class="st0" d="M167.5,299.8c0,0,10.4-17,32-5.2c0,0-10,15.1-31.4,9L167.5,299.8z"/>
	<path class="st0" d="M161.9,277.9c0,0,10.4-17.7,31.2-5.9c0,0-12.4,16.1-30.6,9.6L161.9,277.9z"/>
	<path class="st0" d="M159.9,258c0,0,10.3-22.3,29.8-11.5c0,0-11.8,19.6-29.2,15.3L159.9,258z"/>
	<path class="st0" d="M159.3,234.4c0,0,11.2-22.2,30.4-9.7c0,0-14.3,20-29.8,13.3L159.3,234.4z"/>
	<path class="st0" d="M160.8,213.1c0,0,14-21.5,30.2-16.4c0,0-14.6,22.7-30.1,21.5L160.8,213.1z"/>
	<path class="st0" d="M163.6,192.6c0,0,16-26.1,28.7-20.3c0,0-11.6,20.1-29.4,24.8L163.6,192.6z"/>
	<path class="st0" d="M168.5,168.5c0,0,14.2-21.5,27.6-18.9c0,0-11.6,21.8-28.9,25.1L168.5,168.5z"/>
	<path class="st0" d="M172.9,146.1c0,0,16.1-21,25-19.2c0,0-10.5,22.1-25.1,23.3L172.9,146.1z"/>
	<path class="st0" d="M177.3,125.3c0,0,12.9-24,22.2-23.8c0,0-6.9,20.7-21.8,26L177.3,125.3z"/>
	<path class="st0" d="M181.3,97.6c0,0,11.9-18.7,19.7-20c0,0-7.9,23.7-19.4,25.4L181.3,97.6z"/>
	<path class="st0" d="M183.4,79.2l8.5-36.4c0,0,5.7,30.8-9.2,43L183.4,79.2z"/>
	<path class="st0" d="M183,40.7c0,0-2.3-28.9-4.2-31c0,0,13.9,22.1,6.1,43.6L183,40.7z"/>
	<path class="st0" d="M183.3,345c0,0-16-6.6-21.8,16.9c0,0,14.3,6.5,24.4-11.6L183.3,345z"/>
	<path class="st0" d="M173,321.4c0,0-19.1-5.2-24,19.2c0,0,15.3,7.2,26.6-13.6L173,321.4z"/>
	<path class="st0" d="M166.9,301.3c0,0-15.2-12.8-32,5.2c0,0,14.2,11.1,32.6-1.4L166.9,301.3z"/>
	<path class="st0" d="M161.5,278c0,0-15.5-13.5-31.5,4.3c0,0,16.8,11.4,32-0.6L161.5,278z"/>
	<path class="st0" d="M160,258.5c0,0-12.7-21-30.9-8.1c0,0,13.9,18.2,30.7,12L160,258.5z"/>
	<path class="st0" d="M160.4,234.1c0,0-12.7-21.4-31-7.5c0,0,15.6,19,30.7,11.2L160.4,234.1z"/>
	<path class="st0" d="M162.7,212.9c0,0-7.6-24.5-24.5-24c0,0,7.8,25.9,23.1,28.9L162.7,212.9z"/>
	<path class="st0" d="M164,192.6c0,0-6.3-29.9-20.1-28.8c0,0,4.2,22.8,19.3,33.3L164,192.6z"/>
	<path class="st0" d="M169.8,167.4c0,0-8.2-24.4-21.7-25.4c0,0,5.6,24.1,21.4,31.8L169.8,167.4z"/>
	<path class="st0" d="M174.5,146c0,0-4.4-26.1-13-28.7c0,0-1.1,24.5,11.2,32.4L174.5,146z"/>
	<path class="st0" d="M177.9,124.9c0,0-5.5-26.8-14.4-29.2c0,0,0.6,21.8,13.4,31.2L177.9,124.9z"/>
	<path class="st0" d="M182.8,99.6c0,0-3.6-21.9-10.3-26.1c0,0-2,24.9,8,31L182.8,99.6z"/>
	<path class="st0" d="M182.5,78.2l-11.7-35.5c0,0-3,31.1,13,42.1L182.5,78.2z"/>
	<path class="st0" d="M177.8,41.9c0,0-18.7-22.1-18.9-24.9c0,0,5.7,25.4,26.4,35.2L177.8,41.9z"/>
	<path class="st0" d="M178.3,34.3c0,0-19.6-32.5-26.3-34.3c0,0,21.5,6.9,27.3,33.2L178.3,34.3z"/>
	<path class="st1" d="M181.6,103.2l-1-0.1c5.5-40.2,4.5-65.2-2.9-70.2l0.6-0.8C186.1,37.4,187.2,62,181.6,103.2z"/>
	<path class="st1" d="M163.8,198.2l-1.5-0.3c0.7-3.7,1.4-7.5,2.3-11.2c7.3-32.6,13.1-62.7,16.3-85.6l1.1-0.8
		c-3.2,23-8.6,54.1-15.9,86.8C165.2,190.7,164.4,194.5,163.8,198.2z"/>
	<path class="st1" d="M227.6,404.3c-0.2-0.2-22.7-18.5-42-53c-11.3-20.2-19.2-42-23.7-64.7c-5.5-28.3-4.7-61.1,0.8-91.7l1.3,1.1
		c-12.5,68.6,5.7,122.7,23.2,154.2c19,34.1,41.3,52.3,41.5,52.5L227.6,404.3z"/>
</g>
<path class="st3" d="M621,695l-100.3,38.8l-146.6,56.7c-5.5-10.3-13.7-24.3-23.8-41c-34.7-57.5-92.2-147.1-143.3-225.7
	C149.3,435.1,99.7,360.3,99.7,360.3l35.9-10.4L429,264.8L621,695z"/>
<path class="st4" d="M623,688l-100.3,38.8l-146.6,56.7c-5.5-10.3-13.7-24.3-23.8-41c-34.7-57.5-92.2-147.1-143.3-225.7
	c-57.6-88.6-107.2-163.5-107.2-163.5l35.9-10.4L431,257.8L623,688z"/>
<path class="st3" d="M623,688l-100.3,38.8c-56,11.7-113.2,16.9-170.4,15.7c-34.7-57.5-92.2-147.1-143.3-225.7l-71.3-173.9L431,257.8
	L623,688z"/>
<path class="st0" d="M697.6,663.8c0,0-155.8,92.2-388.5,71.4L123.6,283l88.9-15.3L519.8,215l174.3,440.1L697.6,663.8z"/>
<path class="st3" d="M694.2,655.1c-36.7,1.8-79.1,1.6-121.9-3.5c-46.2-5.4-92.7-16.6-132.6-37.2c-33.3-17.2-61.8-35.8-86.7-58.2
	C288.5,498.1,248.5,415,212.6,267.8L519.8,215L694.2,655.1z"/>
<path class="st4" d="M808.5,629.8c0,0-114.9,22.5-231.8,8.7c-46.2-5.5-92.7-16.6-132.6-37.2c-33.3-17.2-61.8-35.8-86.7-58.2
	c-80-72-122.2-182.2-165.7-404.9c0,0,191,46.1,379.7-54.9C571.4,83.3,635.1,480.6,808.5,629.8z"/>
<path class="st3" d="M576.7,638.5c-46.2-5.5-92.7-16.6-132.6-37.2c-33.3-17.2-61.8-35.8-86.7-58.2c68.1-5.5,77.9-42.8,77.9-42.8
	C485.8,580.4,576.7,638.5,576.7,638.5z"/>
<path class="st5" d="M290.5,219.9c0,0,102.6,11.7,198.6-42.3l6.6,21.1c0,0-91.9,45.8-205.2,45.8V219.9z"/>
<path class="st6" d="M290.5,324.2c0,0,102-8.2,215.6-63.1l3.8,8.8c0,0-41.8,52.6-219.4,66.3V324.2z"/>
<path class="st6" d="M302.6,364.9c0,0,102-8.2,215.5-63.1l3.8,8.8c0,0-41.8,52.6-219.4,66.4V364.9z"/>
<path class="st6" d="M313.6,408.8c0,0,102-8.2,215.5-63.1l3.8,8.8c0,0-41.8,52.6-219.4,66.4V408.8z"/>
<path class="st6" d="M326.8,446.3c0,0,102-8.2,215.5-63.1l3.8,8.8c0,0-41.8,52.6-219.4,66.4V446.3z"/>
<path class="st3" d="M338.9,487.1c0,0,102-8.2,215.6-63.1l3.8,8.8c0,0-41.8,52.6-219.4,66.4L338.9,487.1z"/>
<rect x="526.9" y="237.8" transform="matrix(0.9466 -0.3223 0.3223 0.9466 -52.5727 188.1642)" class="st5" width="30.2" height="30.1"/>
<rect x="543.2" y="280.3" transform="matrix(0.9466 -0.3223 0.3223 0.9466 -65.3902 195.6622)" class="st5" width="30.2" height="30.1"/>
<rect x="569.2" y="362" transform="matrix(0.9466 -0.3223 0.3223 0.9466 -90.3304 208.4095)" class="st5" width="30.2" height="30.1"/>
<rect x="584.1" y="405.8" transform="matrix(0.9466 -0.3223 0.3223 0.9466 -103.6647 215.5618)" class="st5" width="30.2" height="30.1"/>
<rect x="556.4" y="324.4" transform="matrix(0.9466 -0.3223 0.3223 0.9466 -78.899 202.2819)" class="st5" width="30.2" height="30.1"/>
<path class="st7" d="M840.1,519.1"/>
<path class="st8" d="M542.2,255.1l-13.5-6.6c-0.8-0.4-1.1-1.4-0.8-2.2c0,0,0,0,0,0l1.4-2.9c0.4-0.8,1.4-1.1,2.2-0.8c0,0,0,0,0,0
	l9.1,4.4l9.5-19.5c0.4-0.8,1.4-1.1,2.2-0.8l2.9,1.4c0.8,0.4,1.1,1.4,0.8,2.2c0,0,0,0,0,0l-11.6,23.9
	C544,255.1,543,255.5,542.2,255.1C542.2,255.1,542.2,255.1,542.2,255.1z"/>
<path class="st8" d="M571.7,339.2l-13.5-6.6c-0.8-0.4-1.1-1.4-0.8-2.2c0,0,0,0,0,0l1.4-2.9c0.4-0.8,1.4-1.1,2.2-0.8l9.1,4.4
	l9.5-19.5c0.4-0.8,1.4-1.1,2.2-0.8l2.9,1.4c0.8,0.4,1.2,1.4,0.8,2.2c0,0,0,0,0,0l-11.6,23.9C573.5,339.3,572.5,339.6,571.7,339.2
	L571.7,339.2z"/>
<path class="st8" d="M558.5,297.7l-13.5-6.6c-0.8-0.4-1.1-1.4-0.8-2.2l1.4-2.9c0.4-0.8,1.4-1.1,2.2-0.8c0,0,0,0,0,0l9.1,4.4
	l9.5-19.5c0.4-0.8,1.4-1.1,2.2-0.8c0,0,0,0,0,0l2.9,1.4c0.8,0.4,1.1,1.4,0.8,2.2L560.6,297C560.2,297.8,559.3,298.1,558.5,297.7
	C558.5,297.7,558.5,297.7,558.5,297.7L558.5,297.7z"/>
<path class="st8" d="M584.5,377.2l-13.5-6.6c-0.8-0.4-1.1-1.4-0.8-2.2c0,0,0,0,0,0l1.4-2.9c0.4-0.8,1.4-1.1,2.2-0.8c0,0,0,0,0,0
	l9.1,4.4l9.5-19.5c0.4-0.8,1.4-1.1,2.2-0.8l2.9,1.4c0.8,0.4,1.1,1.4,0.8,2.2c0,0,0,0,0,0l-11.6,23.9
	C586.3,377.3,585.3,377.6,584.5,377.2z"/>
</svg>
