<?xml version="1.0" encoding="utf-8"?>
<!-- Generator: Adobe Illustrator 21.0.0, SVG Export Plug-In . SVG Version: 6.00 Build 0)  -->
<svg version="1.1" id="ffc6eb9a-0ec0-429c-85a8-ff38b44048bf"
	 xmlns="http://www.w3.org/2000/svg" xmlns:xlink="http://www.w3.org/1999/xlink" x="0px" y="0px" viewBox="0 0 896 748"
	 style="enable-background:new 0 0 896 748;" xml:space="preserve">
<style type="text/css">
	.st0{fill:#F2F2F2;}
	.st1{fill:#2F2E41;}
	.st2{fill:#F7CAC9;}
	.st3{fill:#3F3D56;}
</style>
<title>empty_cart</title>
<rect x="413.2" y="35.9" class="st0" width="140" height="2"/>
<rect x="513.2" y="37.4" class="st0" width="2" height="18.5"/>
<rect x="452.2" y="37.4" class="st0" width="2" height="18.5"/>
<rect x="484.2" y="131.9" class="st0" width="140" height="2"/>
<rect x="522.2" y="113.9" class="st0" width="2" height="18.5"/>
<rect x="583.2" y="113.9" class="st0" width="2" height="18.5"/>
<rect x="670.2" y="176.9" class="st0" width="140" height="2"/>
<rect x="708.2" y="158.9" class="st0" width="2" height="18.5"/>
<rect x="769.2" y="158.9" class="st0" width="2" height="18.5"/>
<rect x="656.2" y="640.9" class="st0" width="140" height="2"/>
<rect x="694.2" y="622.9" class="st0" width="2" height="18.5"/>
<rect x="755.2" y="622.9" class="st0" width="2" height="18.5"/>
<rect x="417.2" y="250.9" class="st0" width="140" height="2"/>
<rect x="455.2" y="232.9" class="st0" width="2" height="18.5"/>
<rect x="516.2" y="232.9" class="st0" width="2" height="18.5"/>
<rect x="320.2" y="640.9" class="st0" width="140" height="2"/>
<rect x="358.2" y="622.9" class="st0" width="2" height="18.5"/>
<rect x="419.2" y="622.9" class="st0" width="2" height="18.5"/>
<rect x="685.2" y="487.9" class="st0" width="140" height="2"/>
<rect x="723.2" y="469.9" class="st0" width="2" height="18.5"/>
<rect x="784.2" y="469.9" class="st0" width="2" height="18.5"/>
<g>
	<path class="st1" d="M118.5,699.1c17.5,32.4,54.6,46.3,54.6,46.3s8.8-38.6-8.7-71s-54.6-46.3-54.6-46.3S101,666.7,118.5,699.1z"/>
	<path class="st2" d="M130.5,688.4c31.5,19,43.7,56.7,43.7,56.7s-39,6.9-70.5-12.1c-31.5-19-43.7-56.7-43.7-56.7
		S99,669.5,130.5,688.4z"/>
	<polygon class="st1" points="569,684.3 236.1,684.3 236.1,681.9 566.6,681.9 566.6,565.7 264.1,565.7 249.4,535.1 251.5,534.1 
		265.6,563.3 569,563.3 	"/>
	<circle class="st3" cx="280.4" cy="717.8" r="25.1"/>
	<circle class="st3" cx="528.3" cy="717.8" r="25.1"/>
	<circle class="st3" cx="820.5" cy="183.7" r="15.6"/>
	<path class="st1" d="M604.6,526.2H230.4l-81-264.6H688l-0.5,1.6L604.6,526.2z M232.2,523.8h370.6L684.7,264h-532L232.2,523.8z"/>
	<polygon class="st0" points="575.4,512.4 246.7,512.4 175.6,277.7 648.6,277.7 648.2,279.1 	"/>
	<polygon class="st1" points="694.7,237.9 692.4,237.3 708.2,177.7 800.1,177.7 800.1,180.1 710,180.1 	"/>
	<rect x="175.6" y="341.8" class="st1" width="485.4" height="2.4"/>
	<rect x="202.6" y="430" class="st1" width="430.6" height="2.4"/>
	<rect x="417.5" y="262.8" class="st1" width="2.4" height="262.2"/>
	
		<rect x="388.3" y="392.7" transform="matrix(6.541722e-02 -0.9979 0.9979 6.541722e-02 92.6971 886.7281)" class="st1" width="262.8" height="2.4"/>
	
		<rect x="316.5" y="262.5" transform="matrix(0.9979 -6.503739e-02 6.503739e-02 0.9979 -24.9442 21.4955)" class="st1" width="2.4" height="262.8"/>
</g>
<rect y="745" class="st1" width="896" height="2"/>
<rect x="12.2" y="487.9" class="st0" width="140" height="2"/>
<rect x="50.2" y="469.9" class="st0" width="2" height="18.5"/>
<rect x="111.2" y="469.9" class="st0" width="2" height="18.5"/>
<rect x="109.2" y="56.9" class="st0" width="140" height="2"/>
<rect x="209.2" y="58.4" class="st0" width="2" height="18.5"/>
<rect x="148.2" y="58.4" class="st0" width="2" height="18.5"/>
<rect x="12.2" y="252.9" class="st0" width="140" height="2"/>
<rect x="112.2" y="254.4" class="st0" width="2" height="18.5"/>
<rect x="51.2" y="254.4" class="st0" width="2" height="18.5"/>
<rect x="180.2" y="152.9" class="st0" width="140" height="2"/>
<rect x="218.2" y="134.9" class="st0" width="2" height="18.5"/>
<rect x="279.2" y="134.9" class="st0" width="2" height="18.5"/>
</svg>
