<?xml version="1.0" encoding="utf-8"?>
<!-- Generator: Adobe Illustrator 21.0.0, SVG Export Plug-In . SVG Version: 6.00 Build 0)  -->
<svg version="1.1" id="a281da36-03ff-4df9-8bcc-0ac71230b2d7"
	 xmlns="http://www.w3.org/2000/svg" xmlns:xlink="http://www.w3.org/1999/xlink" x="0px" y="0px" viewBox="0 0 1177.8 725.2"
	 style="enable-background:new 0 0 1177.8 725.2;" xml:space="preserve">
<style type="text/css">
	.st0{opacity:0.1;fill:#F7CAC9;enable-background:new    ;}
	.st1{fill:#F7CAC9;}
	.st2{fill:#444053;}
	.st3{fill:none;stroke:#444053;stroke-miterlimit:10;}
	.st4{fill:none;stroke:#444053;stroke-width:0.75;stroke-miterlimit:10;}
	.st5{fill:#BDBDBD;}
	.st6{fill:#FFFFFF;}
	.st7{fill:#E0E0E0;}
	.st8{opacity:0.1;fill:#33323D;enable-background:new    ;}
	.st9{fill:#FBD56F;}
	.st10{fill:url(#SVGID_1_);}
</style>
<title>printing invoices</title>
<path class="st0" d="M1177.8,465.3c0,19.6-2.4,39.2-7.1,58.2c-1.6,6.4-3.4,12.7-5.5,18.9c-2.6,7.6-5.6,15-8.9,22.3
	c-1.7,3.7-3.5,7.3-5.4,10.8c0,20.1-4.1,40-12.2,58.5c-14.6,33.1-40.5,59.8-73.2,75.4c-20.4,9.7-42.8,14.9-65.4,15H223.6
	c-34.6,0.1-68.5-9-98.4-26.3c-4.4-2.6-8.7-5.3-12.9-8.2c-9.1-6.3-17.7-13.3-25.6-21.1C76,658.4,66.5,646.7,58.6,634
	c-18.7-29.7-28.6-64.1-28.6-99.2C11,501.5,0,461.7,0,418.9c0-54,17.6-103.3,46.4-140.5c6-7.8,12.6-15.1,19.7-21.9
	c7-6.7,14.5-12.9,22.5-18.5c6.4-4.4,13.1-8.5,20-12c2.9-1.5,5.8-2.9,8.7-4.1c2.6-1.1,5.2-2.2,7.9-3.2c3.2-1.2,6.4-2.3,9.7-3.3
	c3.3-1,6.5-1.9,9.6-2.7c4.7-1.1,9.4-2.1,14.2-2.8c4-0.6,8-1,12-1.3c3.2-0.2,6.4-0.4,9.6-0.4h1.8c3.6,0,7.1,0.1,10.6,0.4
	c0.4-0.7,0.8-1.5,1.1-2.2c1.4-2.7,2.9-5.3,4.3-7.9v-0.1c0.3-0.5,0.5-0.9,0.8-1.3c1.2-2.1,2.4-4.2,3.7-6.3c0.6-1,1.1-1.9,1.7-2.9
	c0.1-0.2,0.3-0.5,0.4-0.7c0.6-1,1.2-2,1.8-3c3.1-4.9,6.3-9.8,9.6-14.5c0.3-0.4,0.6-0.8,0.9-1.2c0.5-0.7,1-1.5,1.6-2.2
	c1.4-1.9,2.8-3.9,4.2-5.8c1-1.4,2-2.7,3.1-4c2.6-3.4,5.3-6.7,8-10s5.6-6.6,8.5-9.9c0.4-0.4,0.8-0.9,1.2-1.3l4.3-4.6l0,0
	c0.2-0.2,0.4-0.4,0.6-0.6l0,0c0.5-0.6,1-1.1,1.5-1.6c2.3-2.4,4.6-4.8,7-7.2c12.1-12,24.9-23.1,38.4-33.4c0.5-0.4,1.1-0.8,1.6-1.2
	c2.5-1.9,5.1-3.8,7.7-5.7c14.2-10.2,29-19.4,44.4-27.7c1.1-0.6,2.1-1.2,3.2-1.7c13.8-7.3,28-13.8,42.5-19.6c7.9-3.1,16-6,24.1-8.8
	c5.4-1.8,10.9-3.5,16.4-5c8.5-2.4,17.1-4.7,25.9-6.6c25.7-5.8,51.9-9.3,78.2-10.7c8-0.4,16.1-0.6,24.3-0.6
	c39.5-0.1,78.8,4.9,117,14.8c0.8,1.2,2.2,1.9,3.6,1.9h3.4c1.5,0.4,2.9,0.8,4.4,1.2c8.2,2.4,16.2,4.9,24.1,7.7l2,0.7
	c19.5,7,38.6,15.3,56.9,25c16.5,8.7,32.5,18.6,47.7,29.4c2.3,1.7,4.6,3.4,6.9,5.1c2.8-1.8,5.6-3.5,8.4-5.1
	c11-6.3,22.7-11.3,34.9-14.9c25.4-7.5,52.3-8.6,78.2-3.1c33.3,7.1,63.4,24.6,87.7,49.4c9.9,10.2,18.7,21.3,26.3,33.3
	c0.6,0.9,1.1,1.7,1.6,2.6c6.5,10.6,12.1,21.8,16.7,33.4c0.2,0.4,0.3,0.8,0.5,1.3c4.3,10.8,7.7,22,10.3,33.4c0.1,0.6,0.3,1.1,0.4,1.7
	c2.4,11,4.1,22.1,4.9,33.4c0,0.4,0,0.8,0.1,1.2c0.4,5.8,0.6,11.7,0.6,17.6c0,5.3-0.2,10.6-0.5,15.8c0,0.6-0.1,1.2-0.1,1.8
	c-0.1,1.5-0.2,3-0.3,4.5c7.6,6.2,14.8,12.9,21.4,20.2c2.9,3.2,5.7,6.5,8.5,9.9c8.3,10.4,15.6,21.6,21.8,33.4
	C1168.1,387.6,1177.8,425.1,1177.8,465.3z"/>
<path class="st0" d="M1064.8,662.1c0,22.7-23.6,44-64.7,62.3H223.6c-35.9,0-69.6-13-98.4-35.7c-7.3-8.6-11.1-17.5-11.1-26.7
	c0-24.2,26.6-46.7,72.7-65.8l0,0l1.3-0.5c13-5.3,27.5-10.4,43.4-15.1c0.4-0.1,0.8-0.2,1.2-0.4l0,0c12.6-3.7,26-7.2,40.2-10.5
	c0.5-0.1,0.9-0.2,1.3-0.3c5.5-1.3,11.1-2.5,16.8-3.7l0,0l2.2-0.5c41.5-8.6,88.8-15.5,140-20.1h0.1c7.2-0.7,14.4-1.3,21.8-1.8
	c8.1-0.7,16.4-1.2,24.7-1.7c6.4-0.4,12.8-0.8,19.3-1.1c0,0,0.1,0,0.1,0c29.2-1.5,59.3-2.2,90.2-2.2c76.3,0,148.3,4.7,212.2,13
	c0.1,0,0.1,0,0.2,0c9.8,1.3,19.5,2.6,28.9,4.1c2.7,0.4,5.4,0.8,8,1.3c10.6,1.7,20.9,3.5,31,5.4l0,0
	C988,584.7,1064.8,621.1,1064.8,662.1z"/>
<path class="st1" d="M871.5,243.3c0,0-10.6-4.3-44.2,11.1s-37.9,13.5-46.6,11.2s-13.6-2.9-22.9-15.8c0,0-6.6-35.7-13-41.3
	s-33.5,3.2-33.5,3.2s-32.5,7.5-38.7-36c0,0,4.4-32.7-1.6-42.8c0,0,12.1,5.2,32-3.2s35.9,9,35.9,9s5,13,4.5,20.8s2.7,10.7,12.2,6.9
	c0,0,4.7-6.6-1.9-17.6s-11.3-19.1-9.5-27.7s7.2-20.4,24.2-26.3s40.2-7,51.3-11.7s13.9-7.7,13.9-7.7s-6.8,6.9,9.3,35.9
	s5.8,41.6,5.8,41.6s-8.6,20.4-46.4,18.8c0,0-36.5,1.3-16.6,16.8c0,0,12.7-2.6,31.8-8.6s32.8,18.9,36.2,36.3S871.5,243.3,871.5,243.3
	z"/>
<path class="st2" d="M822.5,97.6l0.2-0.1c1.5,5.5-14.8,27.8-28.8,45.5l-0.2-0.1C813.4,118,823.6,101.9,822.5,97.6z"/>
<path class="st2" d="M794,142.6l0.1,0.2c-11.1,14.1-25.1,31-36.3,43.5c-1.1,1.2-2.1,2.4-3.2,3.7l-0.3-0.3c1-1.3,2.1-2.5,3.2-3.7
	C768.7,173.6,782.9,156.7,794,142.6z"/>
<path class="st2" d="M754.6,189.5l0.2,0.4c-20.4,25.5-21.7,65-21.8,65.3l-4.3-5C728.8,249.8,734.1,215.1,754.6,189.5z"/>
<path class="st3" d="M847.9,229.5c0,0-24-12.5-42.8-8s-61-15.9-61-15.9s-17.9-7.3-21.5-15.6c0,0-12.3-13-13-19.7
	S697,146.7,689.2,146"/>
<path class="st3" d="M844.4,241.5c0,0-12.1-8.2-10.7-17.7"/>
<path class="st3" d="M825.8,252c0,0-17.3-6.3-19-30.9"/>
<path class="st3" d="M797.9,258.4c0,0-16.5-13.7-11-37.7"/>
<path class="st3" d="M764.3,251.7c0,0-11-23.1-1.2-38.1"/>
<path class="st3" d="M848.1,214.3c0,0-12.5,4-9.8,10.6"/>
<path class="st3" d="M833,191.6c0,0-16.8,5.3-17.1,29"/>
<path class="st3" d="M809.7,186.1c0,0-15.3,18.8-14.1,35.9"/>
<path class="st3" d="M783,193.4c0,0-15.1,14.5-13.2,22.5"/>
<path class="st3" d="M773.8,188.3c0,0-14.2,2.5-16.2-2.1"/>
<path class="st3" d="M755.4,171.2c0,0,7.2,9.5,9,7.4"/>
<path class="st3" d="M826.5,165.2c0,0-35.8,2.6-43.9-8.2"/>
<path class="st3" d="M747.9,123.3c0,0,16.8,36.1,29,40.6"/>
<path class="st3" d="M765.5,106.1c0,0,10.3,33.2,23.1,43.5"/>
<path class="st4" d="M841.6,137.8c0,0-27.2,11.7-43.6-0.1"/>
<path class="st4" d="M789.7,99.1c0,0,6.2,24.4,14.6,30.3"/>
<path class="st4" d="M837.5,110.5c0,0-15.3,5.8-21,1.4"/>
<path class="st3" d="M742.3,179.2c0,0,0,21.3-5.8,22.8"/>
<path class="st3" d="M695,206.7c0,0,23,2,33.6-9.9"/>
<path class="st3" d="M736.4,154.1c0,0-5.6,21.5-20.9,27.4"/>
<path class="st3" d="M681.2,184c0,0,16.3,5.6,30.3-8.7"/>
<path class="st3" d="M718.3,135.5c0,0-1.5,18.3-11.5,26.9"/>
<path class="st3" d="M681.8,156.1c0,0,13.5,0.1,16.7-4.3"/>
<rect x="395.2" y="225.6" class="st5" width="384.2" height="193.9"/>
<rect x="275.5" y="478.4" class="st5" width="624.8" height="127.7"/>
<polygon class="st6" points="424.7,510.4 745,510.4 808.9,725.2 357.2,725.2 "/>
<polygon class="st7" points="257.7,402.3 257.7,468.6 257.7,482.6 257.7,606.1 377.4,606.1 377.4,488.3 798.4,488.3 798.4,606.1 
	918.1,606.1 918.1,482.6 918.1,468.6 918.1,402.3 "/>
<rect x="257.7" y="402.3" class="st8" width="660.4" height="66.3"/>
<circle class="st1" cx="882.5" cy="435.5" r="9.8"/>
<circle class="st9" cx="838.3" cy="435.5" r="9.8"/>
<rect x="409.3" y="178.9" class="st6" width="356" height="211.1"/>
<linearGradient id="SVGID_1_" gradientUnits="userSpaceOnUse" x1="552.69" y1="16.17" x2="622.29" y2="16.17" gradientTransform="matrix(1 0 0 -1 -11.09 638.58)">
	<stop  offset="0" style="stop-color:#808080;stop-opacity:0.25"/>
	<stop  offset="0.54" style="stop-color:#808080;stop-opacity:0.12"/>
	<stop  offset="1" style="stop-color:#808080;stop-opacity:0.1"/>
</linearGradient>
<path class="st10" d="M582,614.3c-15.3-6.3-19.7-10.9-19.7-20c0-7,3.1-15.1,16.6-15.1c7.5-0.1,14.8,2,21.1,6l4.4-11.6
	c-5.1-3-12.3-5.8-22.8-6.1v-17h-8.9v17.7c-16.1,2.6-25.5,13.7-25.5,28.2c0,15.3,9,23.3,26.9,30.3c13,5.3,19.8,11.3,19.8,20.9
	c0,10-8.4,17.2-20.9,17.2c-9.8,0-20.9-3.3-27.2-7.5l-4.2,11.7c6.1,4.4,16.7,7.5,26.8,7.7v17.7h15.1v-18.2c18-3,27.7-16,27.7-29.8
	C611.2,630.8,600.1,621.6,582,614.3z"/>
<path class="st1" d="M568.5,690.4v-17.7c-10.2-0.2-20.7-3.3-26.8-7.7l4.2-11.7c6.3,4.2,17.4,7.5,27.2,7.5c12.5,0,20.8-7.2,20.8-17.2
	c0-9.6-6.8-15.6-19.8-20.9c-17.9-7-26.9-15.1-26.9-30.3c0-14.5,9.3-25.6,25.5-28.2v-17.7h8.9v17c10.5,0.3,17.7,3.2,22.8,6.1
	l-4.4,11.6c-6.3-4-13.6-6.1-21.1-6c-13.5,0-16.6,8.1-16.6,15.1c0,9.1,4.5,13.7,19.7,20c18.1,7.4,29.2,16.5,29.2,32.1
	c0,13.8-9.6,26.8-27.7,29.8v18.2H568.5z"/>
</svg>
