<?xml version="1.0" encoding="utf-8"?>
<!-- Generator: Adobe Illustrator 21.0.0, SVG Export Plug-In . SVG Version: 6.00 Build 0)  -->
<svg version="1.1" id="a329d3bf-4b11-4261-9182-40685c3b1c8f"
	 xmlns="http://www.w3.org/2000/svg" xmlns:xlink="http://www.w3.org/1999/xlink" x="0px" y="0px" viewBox="0 0 1118 802.8"
	 style="enable-background:new 0 0 1118 802.8;" xml:space="preserve">
<style type="text/css">
	.st0{opacity:0.1;fill:#F7CAC9;enable-background:new    ;}
	.st1{fill:none;stroke:#535461;stroke-width:2;stroke-miterlimit:10;}
	.st2{fill:#F7CAC9;}
	.st3{opacity:0.25;enable-background:new    ;}
	.st4{fill:#FBD56F;}
	.st5{opacity:0.1;enable-background:new    ;}
	.st6{opacity:0.2;enable-background:new    ;}
	.st7{fill:#FAD46F;}
</style>
<title>Savings</title>
<ellipse class="st0" cx="559" cy="734.9" rx="559" ry="67.9"/>
<g>
	<path class="st1" d="M956.5,768.2c0,0,29.2-37.1,26.8-73.9c-1.1-15.4,2.9-30.8,11.3-43.8c4-6.1,8.6-11.9,13.7-17.2"/>
	<path class="st2" d="M1006.9,610.1c-2.1,5.2,1.3,23.8,1.3,23.8s15.3-11.2,17.3-16.4c2-5.2-0.5-11-5.6-13
		C1014.8,602.4,1008.9,604.9,1006.9,610.1L1006.9,610.1z"/>
	<path class="st2" d="M980.1,632.5c1.1,5.4,14,19.3,14,19.3s6.7-17.7,5.7-23.2s-6.4-9-11.8-7.9C982.5,621.7,979,627,980.1,632.5
		L980.1,632.5z"/>
	<path class="st2" d="M961.3,681.5c3.7,4.2,21.9,9.6,21.9,9.6s-3.1-18.7-6.8-22.9c-3.7-4.2-10-4.6-14.2-0.9
		C958,671,957.6,677.3,961.3,681.5C961.3,681.5,961.3,681.5,961.3,681.5L961.3,681.5z"/>
	<path class="st2" d="M955.4,721.8c2.9,4.7,19.9,13.1,19.9,13.1s0.1-19-2.8-23.7s-9.1-6.2-13.8-3.3
		C954,710.9,952.5,717.1,955.4,721.8L955.4,721.8z"/>
	<path class="st2" d="M1013.3,660.5c-5.1,2.1-23.8-1-23.8-1s11-15.4,16.2-17.5c5.1-2.1,11,0.3,13.1,5.4
		C1020.9,652.5,1018.5,658.4,1013.3,660.5C1013.3,660.5,1013.3,660.5,1013.3,660.5z"/>
	<path class="st2" d="M1005.9,707.6c-5.5,0.5-22.4-8.1-22.4-8.1s15.1-11.4,20.7-11.9c5.5-0.5,10.4,3.6,10.9,9.1
		S1011.4,707.1,1005.9,707.6C1005.9,707.6,1005.9,707.6,1005.9,707.6z"/>
	<path class="st2" d="M992.3,752.3c-5.4,1.4-23.5-4.2-23.5-4.2s13-13.8,18.4-15.2c5.4-1.4,10.9,1.8,12.3,7.2
		C1000.9,745.4,997.7,750.9,992.3,752.3L992.3,752.3z"/>
	<path class="st3" d="M1006.9,610.1c-2.1,5.2,1.3,23.8,1.3,23.8s15.3-11.2,17.3-16.4c2-5.2-0.5-11-5.6-13
		C1014.8,602.4,1008.9,604.9,1006.9,610.1L1006.9,610.1z"/>
	<path class="st3" d="M980.1,632.5c1.1,5.4,14,19.3,14,19.3s6.7-17.7,5.7-23.2s-6.4-9-11.8-7.9C982.5,621.7,979,627,980.1,632.5
		L980.1,632.5z"/>
	<path class="st3" d="M961.3,681.5c3.7,4.2,21.9,9.6,21.9,9.6s-3.1-18.7-6.8-22.9c-3.7-4.2-10-4.6-14.2-0.9
		C958,671,957.6,677.3,961.3,681.5C961.3,681.5,961.3,681.5,961.3,681.5L961.3,681.5z"/>
	<path class="st3" d="M955.4,721.8c2.9,4.7,19.9,13.1,19.9,13.1s0.1-19-2.8-23.7s-9.1-6.2-13.8-3.3
		C954,710.9,952.5,717.1,955.4,721.8L955.4,721.8z"/>
	<path class="st3" d="M1013.3,660.5c-5.1,2.1-23.8-1-23.8-1s11-15.4,16.2-17.5c5.1-2.1,11,0.3,13.1,5.4
		C1020.9,652.5,1018.5,658.4,1013.3,660.5C1013.3,660.5,1013.3,660.5,1013.3,660.5z"/>
	<path class="st3" d="M1005.9,707.6c-5.5,0.5-22.4-8.1-22.4-8.1s15.1-11.4,20.7-11.9c5.5-0.5,10.4,3.6,10.9,9.1
		S1011.4,707.1,1005.9,707.6C1005.9,707.6,1005.9,707.6,1005.9,707.6z"/>
	<path class="st3" d="M992.3,752.3c-5.4,1.4-23.5-4.2-23.5-4.2s13-13.8,18.4-15.2c5.4-1.4,10.9,1.8,12.3,7.2
		C1000.9,745.4,997.7,750.9,992.3,752.3L992.3,752.3z"/>
	<path class="st1" d="M956.7,766.6c0,0,41.7-22.1,54.4-56.7c5.3-14.5,15.1-27,28-35.5c6.2-4,12.7-7.4,19.5-10.2"/>
	<path class="st2" d="M1066.9,642.5c-4,3.9-8.5,22.3-8.5,22.3s18.5-4.1,22.5-7.9c4-3.9,4-10.2,0.1-14.2
		C1077.2,638.7,1070.8,638.6,1066.9,642.5z"/>
	<path class="st2" d="M1033.3,652.1c-1.2,5.4,5,23.3,5,23.3s13.3-13.5,14.6-18.9c1.2-5.4-2.2-10.8-7.6-12
		C1039.9,643.3,1034.5,646.7,1033.3,652.1z"/>
	<path class="st2" d="M996.3,689.3c1.7,5.3,16.1,17.6,16.1,17.6s4.7-18.4,3-23.7c-1.7-5.3-7.3-8.2-12.6-6.6S994.6,684,996.3,689.3
		C996.2,689.3,996.3,689.3,996.3,689.3z"/>
	<path class="st2" d="M974.6,723.8c0.8,5.5,12.9,20.1,12.9,20.1s7.8-17.3,7-22.8c-0.8-5.5-5.8-9.3-11.3-8.6
		C977.7,713.2,973.8,718.3,974.6,723.8L974.6,723.8L974.6,723.8z"/>
	<path class="st2" d="M1052.3,691.3c-5.5-0.1-21.4-10.6-21.4-10.6s16.3-9.6,21.9-9.5s9.9,4.8,9.8,10.3S1057.8,691.4,1052.3,691.3
		L1052.3,691.3z"/>
	<path class="st2" d="M1026.4,731.3c-5.2-1.8-17.2-16.5-17.2-16.5s18.5-4.3,23.7-2.5c5.2,1.8,8,7.5,6.2,12.8
		C1037.4,730.3,1031.7,733.1,1026.4,731.3L1026.4,731.3z"/>
	<path class="st2" d="M995.9,766.7c-5.5-0.9-19.8-13.4-19.8-13.4s17.5-7.4,23-6.5c5.5,0.9,9.2,6,8.3,11.5
		C1006.6,763.8,1001.4,767.6,995.9,766.7L995.9,766.7z"/>
</g>
<path class="st0" d="M637.1,95.1c-55.2-1.9-107.8-19.8-158.1-39.3s-100-41.1-153.9-51.5c-34.7-6.6-74.3-7.6-102.3,11
	c-26.9,17.9-35.6,48.8-40.2,77.4c-3.5,21.6-5.6,44.3,4,64.4c6.7,14,18.6,25.8,26.8,39.2c28.6,46.7,8.4,104.3-22.6,149.9
	c-14.5,21.4-31.4,41.8-42.6,64.6s-16.4,48.9-6.6,72.1c9.7,23,32.9,40.3,58,52.5c50.9,24.7,111,31.8,169.5,35.8
	c129.6,8.9,259.9,5,389.8,1.2c48.1-1.4,96.4-2.9,143.7-10.3c26.3-4.1,53.4-10.7,72.5-26.5c24.2-20.1,30.2-54.1,14-79.3
	c-27.2-42.2-102.4-52.7-121.5-98.1c-10.5-25,0.3-52.7,15.5-75.9c32.6-49.6,87.3-93.2,90.2-149.9c2-39-24.3-78-65-96.4
	c-42.6-19.3-101.7-16.9-133.2,15.1C742.8,84.1,685.9,96.8,637.1,95.1z"/>
<ellipse class="st4" cx="542.6" cy="664.5" rx="37.6" ry="39.9"/>
<ellipse class="st5" cx="542.6" cy="664.5" rx="37.6" ry="39.9"/>
<ellipse class="st4" cx="549" cy="665.4" rx="37.6" ry="39"/>
<path class="st4" d="M564.3,700.7l-3.9-2.2c0,0-1.8,7.6-1.2,13.1c0.1,1.1,0.9,2.1,2,2.3c9,2.2,51.8,11.7,81.3-1.7
	c0.9-0.4,1.5-1.2,1.6-2.2c0.4-3.3-0.9-10.2-1.4-11.6C641.5,695.7,564.3,700.7,564.3,700.7z"/>
<path class="st5" d="M564.3,700.7l-3.9-2.2c0,0-1.8,7.6-1.2,13.1c0.1,1.1,0.9,2.1,2,2.3c9,2.2,51.8,11.7,81.3-1.7
	c0.9-0.4,1.5-1.2,1.6-2.2c0.4-3.3-0.9-10.2-1.4-11.6C641.5,695.7,564.3,700.7,564.3,700.7z"/>
<ellipse class="st4" cx="601.5" cy="698.6" rx="41.1" ry="9.3"/>
<path class="st4" d="M580,687.1l-3.9-2.2c0,0-1.8,7.6-1.2,13.1c0.1,1.1,0.9,2.1,2,2.3c9,2.2,51.8,11.7,81.3-1.7
	c0.9-0.4,1.5-1.2,1.6-2.2c0.4-3.3-0.9-10.2-1.4-11.6C657.2,682,580,687.1,580,687.1z"/>
<path class="st5" d="M580,687.1l-3.9-2.2c0,0-1.8,7.6-1.2,13.1c0.1,1.1,0.9,2.1,2,2.3c9,2.2,51.8,11.7,81.3-1.7
	c0.9-0.4,1.5-1.2,1.6-2.2c0.4-3.3-0.9-10.2-1.4-11.6C657.2,682,580,687.1,580,687.1z"/>
<ellipse class="st4" cx="617.2" cy="684.9" rx="41.1" ry="9.3"/>
<path class="st4" d="M593.8,669.1l-3.9-2.2c0,0-1.8,7.6-1.2,13.1c0.1,1.1,0.9,2.1,2,2.3c9,2.2,51.8,11.7,81.3-1.7
	c0.9-0.4,1.5-1.2,1.6-2.2c0.4-3.3-0.9-10.2-1.4-11.6C671.1,664,593.8,669.1,593.8,669.1z"/>
<path class="st5" d="M593.8,669.1l-3.9-2.2c0,0-1.8,7.6-1.2,13.1c0.1,1.1,0.9,2.1,2,2.3c9,2.2,51.8,11.7,81.3-1.7
	c0.9-0.4,1.5-1.2,1.6-2.2c0.4-3.3-0.9-10.2-1.4-11.6C671.1,664,593.8,669.1,593.8,669.1z"/>
<ellipse class="st4" cx="631" cy="666.9" rx="41.1" ry="9.3"/>
<path class="st4" d="M578.5,650.4l-3.9-2.2c0,0-1.8,7.6-1.2,13.1c0.1,1.1,0.9,2.1,2,2.3c9,2.2,51.8,11.7,81.3-1.7
	c0.9-0.4,1.5-1.2,1.6-2.2c0.4-3.3-0.9-10.2-1.4-11.6C655.7,645.3,578.5,650.4,578.5,650.4z"/>
<path class="st5" d="M578.5,650.4l-3.9-2.2c0,0-1.8,7.6-1.2,13.1c0.1,1.1,0.9,2.1,2,2.3c9,2.2,51.8,11.7,81.3-1.7
	c0.9-0.4,1.5-1.2,1.6-2.2c0.4-3.3-0.9-10.2-1.4-11.6C655.7,645.3,578.5,650.4,578.5,650.4z"/>
<ellipse class="st4" cx="615.7" cy="648.2" rx="41.1" ry="9.3"/>
<path class="st4" d="M613.1,635.4l-3.9-2.2c0,0-1.8,7.6-1.2,13.1c0.1,1.1,0.9,2.1,2,2.3c9,2.2,51.8,11.7,81.3-1.7
	c0.9-0.4,1.5-1.2,1.6-2.2c0.4-3.3-0.9-10.2-1.4-11.6C690.3,630.3,613.1,635.4,613.1,635.4z"/>
<path class="st5" d="M613.1,635.4l-3.9-2.2c0,0-1.8,7.6-1.2,13.1c0.1,1.1,0.9,2.1,2,2.3c9,2.2,51.8,11.7,81.3-1.7
	c0.9-0.4,1.5-1.2,1.6-2.2c0.4-3.3-0.9-10.2-1.4-11.6C690.3,630.3,613.1,635.4,613.1,635.4z"/>
<ellipse class="st4" cx="650.3" cy="633.2" rx="41.1" ry="9.3"/>
<path class="st4" d="M589.7,625.3l-3.9-2.2c0,0-1.8,7.6-1.2,13.1c0.1,1.1,0.9,2.1,2,2.3c9,2.2,51.8,11.7,81.3-1.7
	c0.9-0.4,1.5-1.2,1.6-2.2c0.4-3.3-0.9-10.2-1.4-11.6C666.9,620.2,589.7,625.3,589.7,625.3z"/>
<path class="st5" d="M589.7,625.3l-3.9-2.2c0,0-1.8,7.6-1.2,13.1c0.1,1.1,0.9,2.1,2,2.3c9,2.2,51.8,11.7,81.3-1.7
	c0.9-0.4,1.5-1.2,1.6-2.2c0.4-3.3-0.9-10.2-1.4-11.6C666.9,620.2,589.7,625.3,589.7,625.3z"/>
<ellipse class="st4" cx="626.9" cy="623.1" rx="41.1" ry="9.3"/>
<path class="st4" d="M605.3,605.8l-3.9-2.2c0,0-1.8,7.6-1.2,13.1c0.1,1.1,0.9,2.1,2,2.3c9,2.2,51.8,11.7,81.3-1.7
	c0.9-0.4,1.5-1.2,1.6-2.2c0.4-3.3-0.9-10.2-1.4-11.6C682.5,600.8,605.3,605.8,605.3,605.8z"/>
<path class="st5" d="M605.3,605.8l-3.9-2.2c0,0-1.8,7.6-1.2,13.1c0.1,1.1,0.9,2.1,2,2.3c9,2.2,51.8,11.7,81.3-1.7
	c0.9-0.4,1.5-1.2,1.6-2.2c0.4-3.3-0.9-10.2-1.4-11.6C682.5,600.8,605.3,605.8,605.3,605.8z"/>
<ellipse class="st4" cx="642.5" cy="603.6" rx="41.1" ry="9.3"/>
<path class="st4" d="M613,582.7l-3.9-2.2c0,0-1.8,7.6-1.2,13.1c0.1,1.1,0.9,2.1,2,2.3c9,2.2,51.8,11.7,81.3-1.7
	c0.9-0.4,1.5-1.2,1.6-2.2c0.4-3.3-0.9-10.2-1.4-11.6C690.2,577.6,613,582.7,613,582.7z"/>
<path class="st5" d="M613,582.7l-3.9-2.2c0,0-1.8,7.6-1.2,13.1c0.1,1.1,0.9,2.1,2,2.3c9,2.2,51.8,11.7,81.3-1.7
	c0.9-0.4,1.5-1.2,1.6-2.2c0.4-3.3-0.9-10.2-1.4-11.6C690.2,577.6,613,582.7,613,582.7z"/>
<ellipse class="st4" cx="650.2" cy="580.5" rx="41.1" ry="9.3"/>
<path class="st4" d="M682.4,706.1l-3.9-2.2c0,0-1.8,7.6-1.2,13.1c0.1,1.1,0.9,2.1,2,2.3c9,2.2,51.8,11.7,81.3-1.7
	c0.9-0.4,1.5-1.2,1.6-2.2c0.4-3.3-0.9-10.2-1.4-11.6C759.6,701,682.4,706.1,682.4,706.1z"/>
<path class="st5" d="M682.4,706.1l-3.9-2.2c0,0-1.8,7.6-1.2,13.1c0.1,1.1,0.9,2.1,2,2.3c9,2.2,51.8,11.7,81.3-1.7
	c0.9-0.4,1.5-1.2,1.6-2.2c0.4-3.3-0.9-10.2-1.4-11.6C759.6,701,682.4,706.1,682.4,706.1z"/>
<ellipse class="st4" cx="719.6" cy="703.9" rx="41.1" ry="9.3"/>
<path class="st4" d="M696.3,688.1l-3.9-2.2c0,0-1.8,7.6-1.2,13.1c0.1,1.1,0.9,2.1,2,2.3c9,2.2,51.8,11.7,81.3-1.7
	c0.9-0.4,1.5-1.2,1.6-2.2c0.4-3.3-0.9-10.2-1.4-11.6C773.5,683.1,696.3,688.1,696.3,688.1z"/>
<path class="st5" d="M696.3,688.1l-3.9-2.2c0,0-1.8,7.6-1.2,13.1c0.1,1.1,0.9,2.1,2,2.3c9,2.2,51.8,11.7,81.3-1.7
	c0.9-0.4,1.5-1.2,1.6-2.2c0.4-3.3-0.9-10.2-1.4-11.6C773.5,683.1,696.3,688.1,696.3,688.1z"/>
<ellipse class="st4" cx="733.5" cy="686" rx="41.1" ry="9.3"/>
<path class="st4" d="M680.9,669.4l-3.9-2.2c0,0-1.8,7.6-1.2,13.1c0.1,1.1,0.9,2.1,2,2.3c9,2.2,51.8,11.7,81.3-1.7
	c0.9-0.4,1.5-1.2,1.6-2.2c0.4-3.3-0.9-10.2-1.4-11.6C758.1,664.4,680.9,669.4,680.9,669.4z"/>
<path class="st5" d="M680.9,669.4l-3.9-2.2c0,0-1.8,7.6-1.2,13.1c0.1,1.1,0.9,2.1,2,2.3c9,2.2,51.8,11.7,81.3-1.7
	c0.9-0.4,1.5-1.2,1.6-2.2c0.4-3.3-0.9-10.2-1.4-11.6C758.1,664.4,680.9,669.4,680.9,669.4z"/>
<ellipse class="st4" cx="718.1" cy="667.3" rx="41.1" ry="9.3"/>
<path class="st4" d="M715.5,654.4l-3.9-2.2c0,0-1.8,7.6-1.2,13.1c0.1,1.1,0.9,2.1,2,2.3c9,2.2,51.8,11.7,81.3-1.7
	c0.9-0.4,1.5-1.2,1.6-2.2c0.4-3.3-0.9-10.2-1.4-11.6C792.7,649.4,715.5,654.4,715.5,654.4z"/>
<path class="st5" d="M715.5,654.4l-3.9-2.2c0,0-1.8,7.6-1.2,13.1c0.1,1.1,0.9,2.1,2,2.3c9,2.2,51.8,11.7,81.3-1.7
	c0.9-0.4,1.5-1.2,1.6-2.2c0.4-3.3-0.9-10.2-1.4-11.6C792.7,649.4,715.5,654.4,715.5,654.4z"/>
<ellipse class="st4" cx="752.7" cy="652.2" rx="41.1" ry="9.3"/>
<path class="st4" d="M692.1,644.3l-3.9-2.2c0,0-1.8,7.6-1.2,13.1c0.1,1.1,0.9,2.1,2,2.3c9,2.2,51.8,11.7,81.3-1.7
	c0.9-0.4,1.5-1.2,1.6-2.2c0.4-3.3-0.9-10.2-1.4-11.6C769.3,639.3,692.1,644.3,692.1,644.3z"/>
<path class="st5" d="M692.1,644.3l-3.9-2.2c0,0-1.8,7.6-1.2,13.1c0.1,1.1,0.9,2.1,2,2.3c9,2.2,51.8,11.7,81.3-1.7
	c0.9-0.4,1.5-1.2,1.6-2.2c0.4-3.3-0.9-10.2-1.4-11.6C769.3,639.3,692.1,644.3,692.1,644.3z"/>
<ellipse class="st4" cx="729.3" cy="642.2" rx="41.1" ry="9.3"/>
<path class="st4" d="M707.7,624.9l-3.9-2.2c0,0-1.8,7.6-1.2,13.1c0.1,1.1,0.9,2.1,2,2.3c9,2.2,51.8,11.7,81.3-1.7
	c0.9-0.4,1.5-1.2,1.6-2.2c0.4-3.3-0.9-10.2-1.4-11.6C784.9,619.8,707.7,624.9,707.7,624.9z"/>
<path class="st5" d="M707.7,624.9l-3.9-2.2c0,0-1.8,7.6-1.2,13.1c0.1,1.1,0.9,2.1,2,2.3c9,2.2,51.8,11.7,81.3-1.7
	c0.9-0.4,1.5-1.2,1.6-2.2c0.4-3.3-0.9-10.2-1.4-11.6C784.9,619.8,707.7,624.9,707.7,624.9z"/>
<ellipse class="st4" cx="744.9" cy="622.7" rx="41.1" ry="9.3"/>
<path class="st4" d="M715.4,601.7l-3.9-2.2c0,0-1.8,7.6-1.2,13.1c0.1,1.1,0.9,2.1,2,2.3c9,2.2,51.8,11.7,81.3-1.7
	c0.9-0.4,1.5-1.2,1.6-2.2c0.4-3.3-0.9-10.2-1.4-11.6C792.6,596.7,715.4,601.7,715.4,601.7z"/>
<path class="st5" d="M715.4,601.7l-3.9-2.2c0,0-1.8,7.6-1.2,13.1c0.1,1.1,0.9,2.1,2,2.3c9,2.2,51.8,11.7,81.3-1.7
	c0.9-0.4,1.5-1.2,1.6-2.2c0.4-3.3-0.9-10.2-1.4-11.6C792.6,596.7,715.4,601.7,715.4,601.7z"/>
<ellipse class="st4" cx="752.6" cy="599.6" rx="41.1" ry="9.3"/>
<path class="st5" d="M808.6,608c0,0-17,7.2-19.3,9S808.6,608,808.6,608z"/>
<ellipse class="st4" cx="627.9" cy="721.4" rx="37.6" ry="39.9"/>
<ellipse class="st5" cx="627.9" cy="721.4" rx="37.6" ry="39.9"/>
<ellipse class="st4" cx="634.4" cy="722.3" rx="37.6" ry="39"/>
<ellipse class="st2" cx="90.1" cy="735.5" rx="46.4" ry="7.8"/>
<path class="st2" d="M109.3,722.6c2-1.8,3.9-4,4.4-6.7s-0.6-5.8-3.1-6.8c-2.8-1.1-5.9,0.9-8.2,2.9s-4.9,4.3-7.9,3.8
	c3.1-2.9,4.6-7.2,3.7-11.3c-0.1-0.8-0.5-1.6-1-2.3c-1.6-1.7-4.4-1-6.3,0.4c-6,4.2-7.7,12.4-7.7,19.7c-0.6-2.6-0.1-5.4-0.1-8.1
	s-0.8-5.7-3-7.2c-1.4-0.8-3-1.1-4.6-1.1c-2.7-0.1-5.7,0.2-7.5,2.1c-2.3,2.5-1.7,6.6,0.3,9.3s5,4.4,7.8,6.3c2.2,1.3,4.1,3.2,5.6,5.3
	c0.2,0.3,0.3,0.6,0.4,1h16.9C102.7,727.9,106.2,725.5,109.3,722.6z"/>
<path class="st2" d="M509.6,684.3c2.1,2.8,3.8,5.9,5,9.2c0.3,0.8,0.7,1.7,1,2.7c5,14.9-2.9,32.8-5.2,30.9s-9.3-5.5-10.7-0.5
	s-6.4,10.2-6.4,10.2c-9.2,9.2-17.5-0.7-22.9-11.1c-1.8-3.4-3.4-6.9-4.7-10.5c-1.2-3.2-1.9-5.4-1.9-5.4l38.2-32.6
	C502,677.3,505.7,679,509.6,684.3z"/>
<path class="st2" d="M449.4,705.2c2.1,2.8,3.8,5.9,5,9.2c0.3,0.8,0.7,1.7,1,2.7c5,14.9-2.9,32.8-5.2,30.9s-9.3-5.5-10.7-0.5
	s-6.4,10.2-6.4,10.2c-9.2,9.2-17.5-0.7-22.9-11.1c-1.8-3.4-3.4-6.9-4.7-10.5c-1.2-3.2-1.9-5.4-1.9-5.4l38.2-32.6
	C441.7,698.2,445.4,699.9,449.4,705.2z"/>
<path class="st2" d="M328.4,734c-0.2,3.5-0.9,7-2,10.3c-0.3,0.9-0.6,1.8-0.9,2.7c-5.7,14.7-23.2,23.4-23.7,20.5s-3.7-10.2-7.9-7.2
	s-11.4,3.8-11.4,3.8c-13,1.3-13-11.7-10.6-23.2c0.8-3.8,1.8-7.5,3-11.1c1.1-3.2,1.9-5.3,1.9-5.3l50.2-0.7
	C327,723.7,328.7,727.4,328.4,734z"/>
<path class="st2" d="M263.5,717.6c-0.2,3.5-0.9,7-2,10.3c-0.3,0.9-0.6,1.8-0.9,2.7c-5.7,14.7-23.2,23.4-23.7,20.5s-3.7-10.2-7.9-7.2
	s-11.4,3.8-11.4,3.8c-13,1.3-13-11.7-10.6-23.2c0.8-3.8,1.8-7.5,3-11.1c1.1-3.2,1.9-5.3,1.9-5.3l50.2-0.7
	C262.1,707.3,263.8,711,263.5,717.6z"/>
<path class="st6" d="M509.6,684.3c2.1,2.8,3.8,5.9,5,9.2c0.3,0.8,0.7,1.7,1,2.7c5,14.9-2.9,32.8-5.2,30.9s-9.3-5.5-10.7-0.5
	s-6.4,10.2-6.4,10.2c-9.2,9.2-17.5-0.7-22.9-11.1c-1.8-3.4-3.4-6.9-4.7-10.5c-1.2-3.2-1.9-5.4-1.9-5.4l38.2-32.6
	C502,677.3,505.7,679,509.6,684.3z"/>
<path class="st6" d="M449.4,705.2c2.1,2.8,3.8,5.9,5,9.2c0.3,0.8,0.7,1.7,1,2.7c5,14.9-2.9,32.8-5.2,30.9s-9.3-5.5-10.7-0.5
	s-6.4,10.2-6.4,10.2c-9.2,9.2-17.5-0.7-22.9-11.1c-1.8-3.4-3.4-6.9-4.7-10.5c-1.2-3.2-1.9-5.4-1.9-5.4l38.2-32.6
	C441.7,698.2,445.4,699.9,449.4,705.2z"/>
<path class="st6" d="M328.4,734c-0.2,3.5-0.9,7-2,10.3c-0.3,0.9-0.6,1.8-0.9,2.7c-5.7,14.7-23.2,23.4-23.7,20.5s-3.7-10.2-7.9-7.2
	s-11.4,3.8-11.4,3.8c-13,1.3-13-11.7-10.6-23.2c0.8-3.8,1.8-7.5,3-11.1c1.1-3.2,1.9-5.3,1.9-5.3l50.2-0.7
	C327,723.7,328.7,727.4,328.4,734z"/>
<path class="st6" d="M263.5,717.6c-0.2,3.5-0.9,7-2,10.3c-0.3,0.9-0.6,1.8-0.9,2.7c-5.7,14.7-23.2,23.4-23.7,20.5s-3.7-10.2-7.9-7.2
	s-11.4,3.8-11.4,3.8c-13,1.3-13-11.7-10.6-23.2c0.8-3.8,1.8-7.5,3-11.1c1.1-3.2,1.9-5.3,1.9-5.3l50.2-0.7
	C262.1,707.3,263.8,711,263.5,717.6z"/>
<path class="st2" d="M611.6,497.5c0,134.2-45.4,242.9-254.8,242.9c-140.7,0-249.6-35-254.8-242.9
	c-3.4-134.1,114.1-242.9,254.8-242.9S611.6,363.3,611.6,497.5z"/>
<path class="st6" d="M309,258.8L309,258.8C309,258.8,309,258.8,309,258.8L309,258.8z"/>
<path class="st6" d="M309.5,258.7c0.6-0.1,1.9-0.3,3.8-0.4l-4.1,0.5c0.1,0,0.1,0,0.2,0C309.4,258.7,309.4,258.7,309.5,258.7z"/>
<path class="st6" d="M497.8,358l-18.6,6.7c-9.5-12.7-19.7-24.9-30.6-36.4c-11.9-12.7-24.8-24.3-38.7-34.7
	c-47.6-35.3-84.5-36.2-96.6-35.3l28-3.3c26.4,4.5,51.8,13.7,75.1,27.1c16.2,9.4,31.4,20.5,45.1,33.3C485.8,338,497.8,358,497.8,358z
	"/>
<path class="st6" d="M329.6,370.6c0,0-24.6-81.8-3.7-104.2c0,0,32.7-11.2,57.3,52.1L329.6,370.6z"/>
<path class="st2" d="M454,294.2c0,0,65.1-55.3,93.9-45.2c0,0,23.4,25.5-24.7,73.4L454,294.2z"/>
<path class="st6" d="M454,294.2c0,0,65.1-55.3,93.9-45.2c0,0,23.4,25.5-24.7,73.4L454,294.2z"/>
<path class="st2" d="M657,559.2c0,72.1-51.7,129.1-100.4,129.1s-75.9-57-75.9-129.1s39.6-127.8,88.2-130.6
	C645.8,424.2,657,487.1,657,559.2z"/>
<path class="st6" d="M657,559.2c0,72.1-51.7,129.1-100.4,129.1s-75.9-57-75.9-129.1s39.6-127.8,88.2-130.6
	C645.8,424.2,657,487.1,657,559.2z"/>
<ellipse class="st2" cx="553.6" cy="570" rx="16.4" ry="20.8"/>
<ellipse class="st2" cx="611.6" cy="552.1" rx="16.4" ry="20.8"/>
<path class="st7" d="M464.6,302c0,4.7-1.1,9.3-3.2,13.4c-2.8,5.5-7.3,10-12.8,12.8c-11.9-12.7-24.8-24.3-38.7-34.7
	c1.2-4.3,3.4-8.2,6.4-11.4c5.2-5.8,12.6-9.1,20.3-9.1C452.1,273,464.6,286,464.6,302z"/>
</svg>
