<?xml version="1.0" encoding="utf-8"?>
<!-- Generator: Adobe Illustrator 21.0.0, SVG Export Plug-In . SVG Version: 6.00 Build 0)  -->
<svg version="1.1" id="fe80fb2b-bcaf-407e-919b-306adc32f78b"
	 xmlns="http://www.w3.org/2000/svg" xmlns:xlink="http://www.w3.org/1999/xlink" x="0px" y="0px" viewBox="0 0 811.5 626.8"
	 style="enable-background:new 0 0 811.5 626.8;" xml:space="preserve">
<style type="text/css">
	.st0{fill:#F2F2F2;}
	.st1{fill:none;stroke:#3F3D56;stroke-miterlimit:10;}
	.st2{opacity:0.3;fill:#F7CAC9;enable-background:new    ;}
	.st3{fill:#F7CAC9;}
</style>
<title>profile</title>
<path class="st0" d="M41.9,127.8h698.2c10.7,0,19.4,8.7,19.4,19.4v460.2c0,10.7-8.7,19.4-19.4,19.4H41.9c-10.7,0-19.4-8.7-19.4-19.4
	V147.2C22.5,136.4,31.2,127.8,41.9,127.8z"/>
<path class="st1" d="M19.4,96.3h698.2c10.7,0,19.4,8.7,19.4,19.4v460.2c0,10.7-8.7,19.4-19.4,19.4H19.4C8.7,595.3,0,586.6,0,575.9
	V115.7C0,104.9,8.7,96.3,19.4,96.3z"/>
<line class="st1" x1="0" y1="144.1" x2="737" y2="144.1"/>
<path class="st2" d="M447.6,256.3h186.8c3.9,0,7.1,3.2,7.1,7.1v16.8c0,3.9-3.2,7.1-7.1,7.1H447.6c-3.9,0-7.1-3.2-7.1-7.1v-16.8
	C440.5,259.4,443.7,256.3,447.6,256.3z"/>
<path class="st2" d="M409.1,342.3h263.8c3.9,0,7.1,3.2,7.1,7.1v10.8c0,3.9-3.2,7.1-7.1,7.1H409.1c-3.9,0-7.1-3.2-7.1-7.1v-10.8
	C402,345.4,405.2,342.3,409.1,342.3z"/>
<path class="st2" d="M409.1,410.3h263.8c3.9,0,7.1,3.2,7.1,7.1v10.8c0,3.9-3.2,7.1-7.1,7.1H409.1c-3.9,0-7.1-3.2-7.1-7.1v-10.8
	C402,413.4,405.2,410.3,409.1,410.3z"/>
<path class="st2" d="M409.1,478.3h263.8c3.9,0,7.1,3.2,7.1,7.1v10.8c0,3.9-3.2,7.1-7.1,7.1H409.1c-3.9,0-7.1-3.2-7.1-7.1v-10.8
	C402,481.4,405.2,478.3,409.1,478.3z"/>
<path class="st1" d="M457.6,246.3h186.8c3.9,0,7.1,3.2,7.1,7.1v16.8c0,3.9-3.2,7.1-7.1,7.1H457.6c-3.9,0-7.1-3.2-7.1-7.1v-16.8
	C450.5,249.4,453.7,246.3,457.6,246.3z"/>
<path class="st1" d="M419.1,332.3h263.8c3.9,0,7.1,3.2,7.1,7.1v10.8c0,3.9-3.2,7.1-7.1,7.1H419.1c-3.9,0-7.1-3.2-7.1-7.1v-10.8
	C412,335.4,415.2,332.3,419.1,332.3z"/>
<path class="st1" d="M419.1,400.3h263.8c3.9,0,7.1,3.2,7.1,7.1v10.8c0,3.9-3.2,7.1-7.1,7.1H419.1c-3.9,0-7.1-3.2-7.1-7.1v-10.8
	C412,403.4,415.2,400.3,419.1,400.3z"/>
<path class="st1" d="M419.1,468.3h263.8c3.9,0,7.1,3.2,7.1,7.1v10.8c0,3.9-3.2,7.1-7.1,7.1H419.1c-3.9,0-7.1-3.2-7.1-7.1v-10.8
	C412,471.4,415.2,468.3,419.1,468.3z"/>
<circle class="st2" cx="56" cy="126.3" r="15"/>
<circle class="st2" cx="98" cy="126.3" r="15"/>
<circle class="st2" cx="140" cy="126.3" r="15"/>
<circle class="st1" cx="62" cy="120.3" r="15"/>
<circle class="st1" cx="104" cy="120.3" r="15"/>
<circle class="st1" cx="146" cy="120.3" r="15"/>
<path class="st3" d="M232.9,574.3c-2.5-11.6-3.2-27.4-2.3-38.4c0,0-12.7-55.8-22.7-61l0,0c-0.2,0.2-5,6.6-5.6,26.2
	c-0.6,20-7.7,33.1-7.7,33.1s2.3,24.9,1,40L232.9,574.3z"/>
<path class="st3" d="M325.2,219.3H94.8C81.6,219.3,71,229.9,71,243c0,0,0,0,0,0v307.5c0,13.1,10.6,23.8,23.8,23.8h0h80.9
	c-2.7-11.2-6.1-28.7-2.7-40.9l0,0l0,0c0.2-0.6,0.3-1.1,0.5-1.7c2.3-7.9,3.1-16.2,2.3-24.4c1.5-7,1.5-14.2,0-21.2
	c-2.5-11.7-4.2-23.1-4.2-23.1s-1.4-15.4-0.2-24.8c0-0.2,0.1-0.4,0.1-0.6c-0.4-0.1-0.7-0.2-0.7-0.2s3.5-16,4.8-26.2
	c0.3-2.4,0.7-5.5,1.1-8.7c-1.2-0.2-2.3-0.5-3.4-0.9c-11.2-4-14.8-39.8-14.8-39.8v-11.3c0,0-3.7-17.4,9.4-25.1
	c12.6-7.4,17.7-9.4,18-9.6c0.1-0.1,0.2-0.1,0.3-0.2c1.4-1.1,2.6-2.6,3.3-4.2c0-0.3,0-0.6,0-0.9c-0.2-4.1-3-7.8-5.7-11
	c-2.3-2.8-4.6-5.5-6.9-8.3c-0.8-0.8-1.4-1.8-1.8-2.9c-0.1-0.6-0.2-1.2-0.2-1.8c0-0.2,0-0.4,0-0.7c0-2.1,0.1-4.1,0.2-6.2
	c0.1-1.8,0.5-4.1,2.3-4.4c0.9-0.2,2.1,0.1,2.6-0.7c0.2-0.3,0.2-0.7,0.1-1.1c0,0,0,0.1,0,0.1c0,0,0-0.1,0-0.1
	c-0.4-1.4-0.6-2.9-0.7-4.4c0-0.7,0.1-1.3,0.3-2c1-3,4.5-4.2,7.6-4.8c3.1-0.6,6.6-1,8.5-3.5c0.5-0.8,1.1-1.6,1.7-2.4
	c0.9-0.8,2-1.4,3.2-1.6c3.8-1,7.9-0.6,11.5,1c1.5,0.7,3,1.6,4.6,1.5c1.7-0.1,3.2-1.3,4.8-1.6c2.7-0.5,5.3,1.6,6.7,4
	c0.9,1.5,1.3,3.3,1.2,5c0,1.7-0.6,3.4-1.8,4.7c-1.2,1.2-2.9,2.1-3.4,3.7c-0.2,0.7-0.2,1.4-0.3,2.1c0,0.1-0.1,0.2-0.1,0.2
	c0,0,0.1,0.1,0.1,0.1c7.1,9.3,5.3,22.7-4.1,29.7c-1.9,1.4-4,2.5-6.3,3.3c0,0.2,0,0.4,0,0.6c-0.1,2.7,0.9,5.2,2.8,7.1l18.5,7.6
	c0,0,11.2-1.4,15.2,15.3c0.6,2.8,0.9,5.6,0.7,8.5c-0.1,2.5,0.2,6.9,3.1,12.7c4.6,9.2,3.5,30.2-5.8,32.3c-8.9,2-12.3,1.1-12.7,1.1
	l0,0.4c0.1,3.9,1.6,38,6.6,42.1c1.4,1.1,1.1,1.9,0,2.4l0,0c0,0,0,0.2,0,0.6c0.2,2.5,0.9,12,4.4,17.4c4,6.2,3.5,42.3,3.5,42.3
	l2.7,21.2c0,0-1.7,13.1,0,15.4c0.9,1.3,2.1,21.4,2.9,38.6h69.5c13.1,0,23.8-10.6,23.8-23.8V243C349,229.9,338.4,219.3,325.2,219.3
	L325.2,219.3z"/>
<path class="st1" d="M70.8,192.3h230.5c13.1,0,23.8,10.6,23.8,23.8v307.5c0,13.1-10.6,23.8-23.8,23.8H70.8
	c-13.1,0-23.8-10.6-23.8-23.8V216C47,202.9,57.6,192.3,70.8,192.3z"/>
<path class="st1" d="M714.4,7.5c-8.7,0.5-16.4,5.9-19.8,13.9c-5,12,1.4,26,11,34.8s21.9,13.7,33,20.3c15,8.8,28.5,21,36,36.7
	s8.3,35.2-0.5,50.1c-8.2,13.9-23.1,22.3-37.3,29.9"/>
<ellipse class="st3" cx="727" cy="8.5" rx="17.5" ry="8.5"/>
<ellipse class="st3" cx="741" cy="64.5" rx="17.5" ry="8.5"/>
<ellipse class="st3" cx="709" cy="73.5" rx="17.5" ry="8.5"/>
<ellipse class="st3" cx="759" cy="120.5" rx="17.5" ry="8.5"/>
<ellipse class="st3" cx="794" cy="120.5" rx="17.5" ry="8.5"/>
</svg>
